<?xml version="1.0" encoding="utf-8"?>
<!-- Generator: Adobe Illustrator 16.0.0, SVG Export Plug-In . SVG Version: 6.00 Build 0)  -->
<!DOCTYPE svg PUBLIC "-//W3C//DTD SVG 1.1//EN" "http://www.w3.org/Graphics/SVG/1.1/DTD/svg11.dtd">
<svg version="1.1" id="Layer_1" xmlns="http://www.w3.org/2000/svg" xmlns:xlink="http://www.w3.org/1999/xlink" x="0px" y="0px"
	 width="24px" height="24px" viewBox="0 0 24 24" enable-background="new 0 0 24 24" xml:space="preserve">
<g>
	<g>
		<path fill="#699458" d="M21.886,15.136c-1.349,0.082-3.12,1.431-4.829,2.205c-2.097,0.947-5.358,0.185-5.358,0.185
			c0.502-0.235,2.548-0.723,2.96-0.904c2.188-0.962,2.003-2.972,0.96-2.954c-1.377,0.022-2.185,0.361-4.934,0.736
			c-2.083,0.284-4.547,0.181-5.729,0.632c-1.667,0.636-4.355,4.923-4.355,4.923l4.154,4.025c0,0,2.572-2.533,3.823-2.533
			c2.852,0,2.966-0.038,5.613-0.181c1.127-0.061,1.361-0.106,2.006-0.324c3.432-1.162,7.117-4.251,7.185-4.623
			C23.539,15.463,22.598,15.092,21.886,15.136L21.886,15.136z M21.886,15.136"/>
	</g>
	<g>
		<g>
			<g>
				<path fill="#699458" d="M17.066,10.851L16.3,13.303l2.576-0.027l-0.583-0.78l0.627-0.508c1.604-1.299,2.522-3.226,2.522-5.283
					c0-1.873-0.786-3.669-2.135-4.946l-0.664,0.891c1.075,1.063,1.698,2.526,1.698,4.055c0,1.675-0.736,3.26-2.015,4.347
					l-0.681,0.578L17.066,10.851z"/>
			</g>
			<g>
				<path fill="#699458" d="M10.752,0.044l0.518,0.694l-0.675,0.502c-1.75,1.298-2.753,3.29-2.753,5.463
					c0,1.885,0.756,3.635,2.096,4.913l0.666-0.895c-1.051-1.06-1.659-2.51-1.659-4.018c0-1.799,0.866-3.512,2.315-4.584l0.672-0.497
					l0.63,0.845l0.766-2.451L10.752,0.044z"/>
			</g>
		</g>
		<path fill="#699458" d="M9.718,7.465h1.516c0.165,0.197,0.411,0.324,0.688,0.324c0.187,0,0.36-0.056,0.504-0.154l1.65,1.3
			c-0.035,0.097-0.058,0.199-0.058,0.308c0,0.497,0.404,0.901,0.902,0.901c0.499,0,0.902-0.404,0.902-0.901
			c0-0.171-0.051-0.33-0.133-0.467l2.563-2.995C18.309,5.793,18.366,5.8,18.426,5.8c0.5,0,0.903-0.403,0.903-0.902
			c0-0.498-0.403-0.901-0.903-0.901c-0.498,0-0.9,0.404-0.9,0.901c0,0.231,0.088,0.439,0.23,0.598l-2.491,2.914
			c-0.106-0.043-0.222-0.068-0.345-0.068c-0.185,0-0.355,0.055-0.498,0.15l-1.654-1.302c0.033-0.096,0.056-0.195,0.056-0.302
			c0-0.498-0.405-0.902-0.902-0.902c-0.499,0-0.901,0.404-0.901,0.902c0,0.005,0.001,0.008,0.001,0.014H9.718V7.465z"/>
	</g>
</g>
</svg>
